<svg xmlns="http://www.w3.org/2000/svg" width="75.997" height="55.929" viewBox="0 0 75.997 55.929"><defs><style>.a{fill:#f6f4e8;}.b{fill:#549ed6;}.c{fill:#da1e3a;}.d{fill:#55bbc1;}.e{fill:#f5c115;}</style></defs><g transform="translate(33.113 44.449)"><path class="a" d="M697.9,487.57c0,1.356-.424,2.009-1.864,2.009v-.966c.822,0,.822-.6.822-1.3v-6.731H697.9ZM696.8,478.1h1.142v1.174H696.79Z" transform="translate(-696.04 -478.1)"/><path class="a" d="M712.234,492.158h1.032V491.4c0-.9-.261-1.136-1-1.136-.636,0-.875.091-1.136.625l-.794-.509a1.851,1.851,0,0,1,1.943-1.083c1.343,0,2.034.536,2.034,2.1v4.525h-1.042v-.635a1.139,1.139,0,0,1-1.214.744,1.755,1.755,0,0,1-1.852-2.008C710.2,492.614,711.047,492.158,712.234,492.158Zm1.032.886H712.3c-.769,0-1.059.354-1.059,1,0,.731.379,1.019.979,1.019.562,0,1.044-.184,1.044-1.644Z" transform="translate(-707.2 -486.927)"/><path class="a" d="M736,489.392h1.044v.635a1.345,1.345,0,0,1,1.252-.744,1.54,1.54,0,0,1,1.525,1.032,1.6,1.6,0,0,1,1.528-1.032c1.059,0,1.826.862,1.826,2.557v4.07h-1.045v-4.055c0-1.271-.455-1.6-1-1.6-.587,0-1.017.5-1.017,1.591v4.07h-1.044v-4.057c0-1.271-.456-1.6-1-1.6-.6,0-1.017.549-1.017,1.591v4.07H736Z" transform="translate(-727.534 -486.913)"/><path class="a" d="M775.988,496.321h-.873L773.55,489.8h1.121l.926,4.578,1.176-4.578h.989l1.18,4.617.913-4.617h1.108l-1.538,6.521h-.888l-1.271-4.788Z" transform="translate(-757.129 -487.321)"/><path class="a" d="M815.163,494.988a1.806,1.806,0,0,1-1.866,1.083c-1.5,0-2.256-1.133-2.256-2.947v-.862c0-1.852.744-2.922,2.087-2.922,1.422,0,2.1.9,2.1,2.922v.68h-3.135v.182c0,1.121.313,2.008,1.2,2.008a1.1,1.1,0,0,0,1.108-.678Zm-3.072-2.966h2.1c0-1.358-.314-1.748-1.059-1.748C812.33,490.272,812.091,490.859,812.091,492.022Z" transform="translate(-786.676 -486.958)"/><path class="a" d="M839.408,490.789a.87.87,0,0,0-.809-.534c-.587,0-.966.5-.966,1.578v4.083H836.59V489.4h1.042v.636a1.254,1.254,0,0,1,1.189-.744,1.533,1.533,0,0,1,1.394.888Z" transform="translate(-806.814 -486.917)"/><path class="a" d="M860.505,480.579l-1.89,2.661,2.191,3.86h-1.227l-1.642-2.966-.483.665v2.3H856.41v-9h1.044v5.1l1.852-2.621Z" transform="translate(-822.435 -478.1)"/><path class="a" d="M882.5,490.916a1.091,1.091,0,0,0-1.133-.665.8.8,0,0,0-.888.873c0,.615.339.875,1.042,1.032.94.212,1.892.6,1.892,1.943a1.791,1.791,0,0,1-2,1.917,2.113,2.113,0,0,1-2.049-1.059l.743-.6a1.241,1.241,0,0,0,1.239.693c.678,0,1.019-.339,1.019-.926s-.235-.835-1.161-1.045a1.941,1.941,0,0,1-1.775-1.943,1.758,1.758,0,0,1,1.892-1.854,1.946,1.946,0,0,1,1.93,1.083Z" transform="translate(-840.53 -486.911)"/></g><g transform="translate(37.431 38.731)"><path class="a" d="M717.6,457.78c.752,0,1.159.553,1.159,1.642v.636c0,1.106-.4,1.659-1.159,1.659a.905.905,0,0,1-.951-.606v2.013h-.231v-5.3h.231v.559A.9.9,0,0,1,717.6,457.78Zm.928,2.271v-.636c0-.943-.307-1.411-.928-1.411-.729,0-.951.551-.951,1.358v.691c0,.847.191,1.422.951,1.422C718.238,461.481,718.53,461,718.53,460.051Z" transform="translate(-716.42 -456.367)"/><path class="a" d="M732.766,460.068c0,1.089-.439,1.642-1.2,1.642s-1.2-.553-1.2-1.642v-.646c0-1.089.439-1.642,1.2-1.642s1.2.553,1.2,1.642Zm-.231,0v-.646c0-.951-.339-1.411-.968-1.411s-.966.46-.966,1.411v.646c0,.951.337,1.413.966,1.413S732.535,461.019,732.535,460.068Z" transform="translate(-727.415 -456.367)"/><path class="a" d="M744.516,461.839h-.229L743.44,458h.237l.744,3.424.911-3.424h.229l.907,3.424.752-3.424h.237l-.847,3.839h-.231l-.932-3.415Z" transform="translate(-737.716 -456.54)"/><path class="a" d="M766.39,461.08a1.1,1.1,0,0,1-1.006.606c-.79,0-1.244-.6-1.244-1.659v-.636c0-1.089.424-1.642,1.138-1.642s1.135.553,1.135,1.642v.386h-2.042v.244c0,.848.3,1.43,1.006,1.43a.877.877,0,0,0,.828-.508Zm-2.019-1.528h1.811c0-1.059-.275-1.566-.9-1.566S764.371,458.5,764.371,459.553Z" transform="translate(-754.03 -456.343)"/><path class="a" d="M780.322,458.494a.78.78,0,0,0-.676-.451c-.532,0-.776.6-.776,1.419V461.7h-.231v-3.839h.231v.6a.843.843,0,0,1,.8-.636.96.96,0,0,1,.848.536Z" transform="translate(-765.458 -456.398)"/><path class="a" d="M790.928,461.08a1.1,1.1,0,0,1-1,.606c-.792,0-1.244-.6-1.244-1.659v-.636c0-1.089.424-1.642,1.135-1.642s1.135.553,1.135,1.642v.386h-2.042v.244c0,.848.3,1.43,1.006,1.43a.877.877,0,0,0,.828-.508Zm-2.019-1.528h1.814c0-1.059-.278-1.566-.907-1.566S788.909,458.5,788.909,459.553Z" transform="translate(-773.371 -456.343)"/><path class="a" d="M804.56,451.11h.231v5.3h-.231v-.561a.9.9,0,0,1-.951.606c-.761,0-1.159-.553-1.159-1.659v-.636c0-1.089.407-1.642,1.159-1.642a.9.9,0,0,1,.951.606Zm0,3.693v-.691c0-.807-.212-1.358-.951-1.358-.623,0-.93.468-.93,1.411v.636c0,.96.3,1.43.93,1.43C804.369,456.225,804.56,455.648,804.56,454.8Z" transform="translate(-784.224 -451.11)"/><path class="a" d="M826.282,452.555c.752,0,1.159.553,1.159,1.642v.636c0,1.106-.4,1.659-1.159,1.659a.909.909,0,0,1-.953-.606v.561H825.1v-5.3h.229v2.019A.9.9,0,0,1,826.282,452.555Zm.928,2.271v-.636c0-.943-.307-1.411-.928-1.411-.731,0-.953.551-.953,1.358v.691c0,.847.193,1.422.953,1.422C826.911,456.256,827.21,455.779,827.21,454.826Z" transform="translate(-802.075 -451.141)"/><path class="a" d="M839.031,461.922,837.76,458h.246c.292.919.585,1.818,1.129,3.547l.97-3.547h.248l-1.114,4.026c-.237.922-.462,1.282-1.091,1.282v-.231c.523,0,.636-.3.869-1.089Z" transform="translate(-812.053 -456.54)"/></g><g transform="translate(0.007)"><path class="b" d="M1.17.011l1.746,0A1.154,1.154,0,0,1,4.072,1.165l0,1.96A1.16,1.16,0,0,1,2.912,4.283l-1.746,0A1.154,1.154,0,0,1,.01,3.13l0-1.96A1.16,1.16,0,0,1,1.17.011Z" transform="translate(32.443 8.536) rotate(-135)"/><path class="c" d="M1.562,0H2.6a1.568,1.568,0,1,1,0,3.137H1.566A1.568,1.568,0,1,1,1.562,0Z" transform="translate(0 26.84) rotate(-40.58)"/><path class="d" d="M1.525,0h.6a1.526,1.526,0,1,1,0,3.053h-.6A1.526,1.526,0,1,1,1.525,0Z" transform="translate(65.24 31.094) rotate(-13.58)"/><path class="e" d="M766.92,343.918c1.907.492,3.025,2.025,3.983,3.354a14.728,14.728,0,0,1,2.307,5.24c1.627,6.367.994,11,2.025,11.244.557.131-1.083,1.786-1.3,1.375-.28-.517-.39-2.892-3.669-1.926-5.258,1.54-6.339,2.375-7.546,1.676-1.483-.86-1.881-3.309-1.466-5.03a6.3,6.3,0,0,1,3.144-3.776c2.36-1.367,3.718-.409,4.822-1.676,1.218-1.4.813-4.026-.212-5.661a3.944,3.944,0,0,0-2.517-2.1c-2.178-.282-3.57,2.831-5.029,2.305a2.088,2.088,0,0,1-1.059-2.1C760.655,344.9,764.164,343.21,766.92,343.918Zm3.616,12.786c-1.123-.324-2.1.091-3.354.636a5.262,5.262,0,0,0-2.725,1.888c-.636.994-1.042,2.619-.424,3.144s1.795-.686,5.659-2.1c1.9-.691,2.818-.828,2.936-1.466C772.778,358.024,771.638,357.024,770.536,356.7Z" transform="translate(-713.651 -327.768)"/><path class="e" d="M718.715,269.165c-.636,2.542,2.888,13.348,3.178,20.895.3,7.456-3.585,12.581-1.271,14.339a2.438,2.438,0,0,0,2.231.318c1.525-.57,2.4-3.053,2.231-14.022-.159-10.24-1.271-21.693-3.532-22.246C720.5,268.2,718.957,268.18,718.715,269.165Z" transform="translate(-680.744 -268.303)"/><path class="e" d="M635.6,344.511c4.765,1.57,6.241,6.547,6.4,7.108,1.08,3.877.212,9.511-4.265,12.077a9.919,9.919,0,0,1-10.661-.71c-3.877-2.833-4.538-7.816-3.563-11.367.155-.557,1.623-5.538,6.4-7.108A9.306,9.306,0,0,1,635.6,344.511Zm-7.106,6.4c-.667,2.119-1.483,4.746,0,7.108a6.031,6.031,0,0,0,5.686,2.841c2.932-.407,4.674-3.278,4.974-5.685.458-3.661-2.44-6.074-2.843-6.4-.295-.235-3.358-2.636-5.686-1.422C629.411,347.988,629,349.289,628.494,350.91Z" transform="translate(-605.452 -328.014)"/><path class="e" d="M578.423,298.3c-1.422,2.134-6.4,31.274-3.553,33.408,6.5,4.875,19.9,4.975,19.9,3.551s1.523-3.045.712-4.265c-1.422-2.131-13.711,3.852-16.349-1.422-.71-1.422.456-13.9,1.422-17.769,1.422-5.687,4.265-13.5,3.555-14.214C583.139,296.622,578.98,297.466,578.423,298.3Z" transform="translate(-566.754 -291.045)"/></g></svg>