<svg id="f5d2ce95-5384-498a-b70a-7c561f920614" data-name="Layer 1" xmlns="http://www.w3.org/2000/svg" width="63.7" height="68.84" viewBox="0 0 63.7 68.84"><defs><style>.a26a3aa0-f9a1-4edd-829e-da5177b20369{fill:#f5c115;stroke:#000;stroke-miterlimit:10;stroke-width:0.1px;}</style></defs><g id="af0cdfbc-0f63-4ee3-801f-aa88867dedfb" data-name="daytime"><g id="bfeb2f0b-2b85-46b4-84a4-60ae07b7a1e5" data-name="sunshine"><circle id="fb2b2c5d-3c38-4e50-9422-e4db15685c35" data-name="sun circle" class="a26a3aa0-f9a1-4edd-829e-da5177b20369" cx="31.86" cy="34.22" r="17.31"/><path id="e2980f18-cb48-418d-b97b-388b5dedbd85" data-name="sun ray 12" class="a26a3aa0-f9a1-4edd-829e-da5177b20369" d="M38,95.84c-.15-.77,2.95-1.21,5.57-4.23a12.67,12.67,0,0,0,2.34-4.12,13.6,13.6,0,0,0,2,3c1.63,1.85,2.83,2.19,2.78,3-.08,1.39-3.71,2.19-4.89,2.45C42.25,96.73,38.13,96.72,38,95.84Z" transform="translate(-30.42 -45.32)"/><path id="a71f2f8a-ed3d-4181-a477-6c78f4b11f53" data-name="sun ray 11" class="a26a3aa0-f9a1-4edd-829e-da5177b20369" d="M44.19,107.86c-.62-.88,5.11-3.72,6.12-9.79.32-1.91.11-3.81,1-4.12s1.76,1.61,4.45,2.56c2.1.74,3.24.15,3.57.78.63,1.24-3.21,4.54-6.13,6.57C49.43,106.47,44.74,108.65,44.19,107.86Z" transform="translate(-30.42 -45.32)"/><path id="bf7e67fb-b234-4f07-8bab-526dd30b2ddb" data-name="sun ray 10 bottom" class="a26a3aa0-f9a1-4edd-829e-da5177b20369" d="M62.33,114.1c-.82-.24,1.94-5.8-.55-11.69-.84-2-2.11-3.59-1.45-4.45s2.13.12,4.9-.45,3.63-1.89,4.23-1.45c.76.57-.28,3.18-2.12,7.57C63.28,113.33,62.67,114.19,62.33,114.1Z" transform="translate(-30.42 -45.32)"/><path id="aa86ca6b-5db9-4b47-865e-484bf3be83fd" data-name="sun ray 9" class="a26a3aa0-f9a1-4edd-829e-da5177b20369" d="M80.92,103c-.69.41-2.6-4.31-7.68-6.45-1.33-.56-2.66-.26-2.67-.85,0-1,3.49-1.47,5.68-4.16,1.14-1.41,1.24-2.73,1.67-2.67.6.08.39,2.79,1,6.34C79.75,100.08,81.46,102.72,80.92,103Z" transform="translate(-30.42 -45.32)"/><path id="b28cdd11-c47c-4018-8319-d7f89da70de2" data-name="sun ray 8" class="a26a3aa0-f9a1-4edd-829e-da5177b20369" d="M92.43,87.57c0-.77-5.24-2.31-8.46-4.56a7.16,7.16,0,0,0-3.63-.91c-.54.19,0,2.49-1.15,4.58-.54,1-1.16,1.27-1,1.67s.52.64,4,.34C84.58,88.48,92.39,88.29,92.43,87.57Z" transform="translate(-30.42 -45.32)"/><path id="b1cdd84d-a914-46e0-9ddb-42d8a6c03cf7" data-name="sun ray 7 right" class="a26a3aa0-f9a1-4edd-829e-da5177b20369" d="M94.06,71.8c-.27-.39-5,.24-10,.89-2.17.27-4,0-4.45,1-.38.81.62,1.49.89,3.45.31,2.29-.74,3.64-.34,3.9.6.38,2.82-2.59,6.68-6.35C90.2,71.41,94.28,72.12,94.06,71.8Z" transform="translate(-30.42 -45.32)"/><path id="fda07fed-cb8b-4276-a559-75604678d398" data-name="sun ray 6" class="a26a3aa0-f9a1-4edd-829e-da5177b20369" d="M89.83,55.21c-4.37,6.88-8.32,8.95-11.25,9.46-.91.16-3.4.47-3.56,1.45s2.27,1.63,3.34,4.34c.45,1.14.28,1.66.56,1.78C79.65,72.56,82.18,69.47,89.83,55.21Z" transform="translate(-30.42 -45.32)"/><path id="aaf7989d-82a6-4c4d-a3f7-36cc776007cc" data-name="sun ray 5" class="a26a3aa0-f9a1-4edd-829e-da5177b20369" d="M74.91,52.09a20.91,20.91,0,0,1-1.45,4.46c-1.79,3.47-4.56,4.56-4.12,5.79.28.74,1.34.44,3.12,1.89,1.07.87,1.36,1.54,1.67,1.44.51-.15-.31-2.21-.11-5.56,0-.42,0-.35.33-2.67C75,52.24,75,52.1,74.91,52.09Z" transform="translate(-30.42 -45.32)"/><path id="a88b9ec4-7430-4326-883a-28f818edc226" data-name="sun ray 4 top" class="a26a3aa0-f9a1-4edd-829e-da5177b20369" d="M62.28,45.42c-.4-.06-.52-.48-1,2.56-.46,3.23,0,3.4-.45,6.12-.68,4.55-2.24,6.49-1.33,7.34s2.64-.8,5.68,0c1.53.41,2,1.07,2.45.78,1.41-.84-1-5-1.34-5.9-1.4-3.69-2.71-4.88-3.23-7.76S62.59,45.46,62.28,45.42Z" transform="translate(-30.42 -45.32)"/><path id="a8e6c22b-810a-4e5f-962f-2033ee4d0d80" data-name="sun ray 3" class="a26a3aa0-f9a1-4edd-829e-da5177b20369" d="M46.93,48.59c-1,.63,4.7,7.34,3,14.74-.2.89-.69,2.55-.13,2.89.94.58,3.3-3.61,7.42-3.89.7,0,1.14,0,1.35-.27.52-.77-1.24-2.76-5.24-7.15C48,49.11,47.28,48.38,46.93,48.59Z" transform="translate(-30.42 -45.32)"/><path id="b36877ab-4866-4ff3-9459-79e34d2b8a6d" data-name="sun ray 2" class="a26a3aa0-f9a1-4edd-829e-da5177b20369" d="M34.5,63.74c.35-.28,6.72-1.38,10.36.6,2.64,1.44,4.44,1.54,4.56,2.56s-1.76,1.36-3.12,3.67-.91,4.1-1.33,4.12c-.59,0-2-2.88-3.9-7.46C39.52,63.47,34.16,64,34.5,63.74Z" transform="translate(-30.42 -45.32)"/><path id="acfae2fa-c469-4998-914d-8dcbb6d8b776" data-name="sun ray 1 left" class="a26a3aa0-f9a1-4edd-829e-da5177b20369" d="M30.5,79.33c.58-.7,7.71-1.28,11.68-2.59,1-.32,1.76-.91,2.23-.55.71.53-.5,2.29-.33,4.78.2,3.06,1.53,4.65,1.11,5.1-.6.62-4.61-1.36-8.24-5C34.7,78.89,30.05,79.86,30.5,79.33Z" transform="translate(-30.42 -45.32)"/></g></g></svg>