<svg id="f068f7c2-926b-41f1-a222-03f64f13804a" data-name="Layer 1" xmlns="http://www.w3.org/2000/svg" xmlns:xlink="http://www.w3.org/1999/xlink" width="236.78" height="78.52" viewBox="0 0 236.78 78.52">
<defs>
<style>.b0722dd3-6806-4587-bd41-db7f6f3c0293{fill:#9bc0dc;stroke:#f6f4e8;stroke-width:2px;}.b0722dd3-6806-4587-bd41-db7f6f3c0293,.b975ca16-9e4e-4abb-9545-5a18b1cfa05f{stroke-miterlimit:10;}.b975ca16-9e4e-4abb-9545-5a18b1cfa05f{stroke:#a58019;stroke-width:0.25px;fill:url(#e96324fb-2911-43de-bb9d-89fe9d2ac5df);}.f179e758-a54f-4c71-a757-ee4aa8658c3e{fill:#e2e2e2;}.e4a95fc4-d4e1-43ef-82d8-d9b4dc511b40{fill:#010;}
</style>
<radialGradient id="e96324fb-2911-43de-bb9d-89fe9d2ac5df" cx="62.16" cy="99.19" r="82.74" gradientTransform="translate(-1.25) scale(1.01 1)" gradientUnits="userSpaceOnUse">
<stop offset="0" stop-color="#f5c115"/>
<stop offset="0.05" stop-color="#e6b514"/>
<stop offset="0.32" stop-color="#95760d"/>
<stop offset="0.56" stop-color="#554307"/>
<stop offset="0.76" stop-color="#271f03"/>
<stop offset="0.91" stop-color="#0b0801"/>
<stop offset="1"/>
</radialGradient>
</defs>
<g id="bc57e176-aa5d-468e-bb31-0c43837c7e9f" data-name="daytime">
<rect id="b9b862d1-fa79-488d-a73c-73db92a8621c" data-name="daytime blue sky" class="b0722dd3-6806-4587-bd41-db7f6f3c0293" x="1" y="1" width="234.78" height="76.52" rx="38.26"/>
<path id="e13d07be-7316-438f-a9c1-b27e81bf128d" data-name="daytime foreground" class="b975ca16-9e4e-4abb-9545-5a18b1cfa05f" d="M201.89,117.34H45.2A37.69,37.69,0,0,1,7.31,79.85h0q9,3.81,19,7.46c4.58,1.68,8.47,3,11.23,3.94,4.54,1.51,8.71,2.82,12.44,3.94a78.58,78.58,0,0,0,27.12,0,92.94,92.94,0,0,0,16.57-4.84c14.64-5.18,30.05-8.67,38.1-10.49,11.7-2.66,36.68.4,59.1,6.81,17.14,4.9,29.29-4.68,37.33-6.81,9.36-2.49,11.62-10.36,11.62,0h0A37.69,37.69,0,0,1,201.89,117.34Z" transform="translate(-5.13 -41.25)"/>
<path id="b6662c4e-383b-456d-9410-914c8b964043" data-name="cloud" class="f179e758-a54f-4c71-a757-ee4aa8658c3e" d="M125,57c-1.86,3.5-1.13,9.42,1.52,12.3,3.27,3.54,7-.18,17.26.77,6.58.61,6.77,2.4,12.72,2.24,3.87-.1,8.92-.32,12.9-4.57,2-2.15,5.13-6.79,4-10.35s-5.79-4.18-9.09-4.63c-6.53-.9-8,1.63-15.36,1.52-5-.08-4.86-2.06-12-2.34a14.51,14.51,0,0,0-7,1.16C128.19,53.84,126.15,54.76,125,57Z" transform="translate(-5.13 -41.25)">
</path>
<path id="b68811ab-a7c7-49e5-9bf8-d2c27bc6ec52" data-name="tree day" class="e4a95fc4-d4e1-43ef-82d8-d9b4dc511b40" d="M153.82,101.82c-.3-1.26-2.07-1.21-4.56-2.61A16.61,16.61,0,0,1,142.74,92a11.16,11.16,0,0,1-1.09-3.34c1.4-.27,2.47-.56,3.26-.79,4.72-1.39,5-2.26,5-2.61,0-.86-2-.89-4.56-2.61-.77-.51-2.4-4-3.92-7.51l-.15-.34c1.58-.42,2.7-1,3-1.93.2-.62-.17-.85-3-5.22-3.88-5.92-5.83-8.88-7-10.87-1.49-2.64-1.81-3.53-2.39-3.48-1.8.16-.25,8.76-5.66,14.78-2.52,2.81-4.72,3-4.56,4.13.12.88,1.62,1.64,3.79,2.2-.86,3,.4,6.63-2.7,10.2-1.35,1.54-2.86,2.32-2.61,3.26.19.72,1.33,1.09,3.61,1.33-1.26,2.67-2.26,4.89-3,6.49-2.73,6.22-3.14,7.8-5.22,10-1.35,1.44-2.37,2-2.17,2.61.38,1.13,4.54.28,10.65,0a53.12,53.12,0,0,1,6.09,0v5H135v-4.73c1.2,0,2.63,0,4.47,0,5.37-.18,8.92-.63,12-3C152,105,154.18,103.33,153.82,101.82Z" transform="translate(-5.13 -41.25)"/>
</g>
</svg>