
<svg id="b20fd20d-b79a-4d4c-90ca-8666a8b6ff78" data-name="Layer 1" xmlns="http://www.w3.org/2000/svg" xmlns:xlink="http://www.w3.org/1999/xlink" width="236.78" height="78.52" viewBox="0 0 236.78 78.52">
<defs>
<style>.fa5cf7c9-a534-4ca3-a162-de47d757a8e7{fill:#294d69;stroke:#f5c115;stroke-width:2px;}.e336286f-8211-4a6d-9eb1-3089af027feb,.fa5cf7c9-a534-4ca3-a162-de47d757a8e7{stroke-miterlimit:10;}.e336286f-8211-4a6d-9eb1-3089af027feb{stroke:#231f20;stroke-width:0.24px;fill:url(#a7aa89dd-7e6f-47ee-8774-65b156b496aa);}.fc9b86c8-77c5-4fb5-af4c-a4e6e59e3181{fill:#010;}.fc337dae-b8ed-49ea-8767-6d49431f9229{fill:#f5c115;}
</style>
<radialGradient id="a7aa89dd-7e6f-47ee-8774-65b156b496aa" cx="200.01" cy="183.77" r="82.74" gradientUnits="userSpaceOnUse">
<stop offset="0.01" stop-color="#939598"/>
<stop offset="0.08" stop-color="#808284"/>
<stop offset="0.22" stop-color="#595a5c"/>
<stop offset="0.36" stop-color="#393a3b"/>
<stop offset="0.51" stop-color="#202021"/>
<stop offset="0.66" stop-color="#0e0e0f"/>
<stop offset="0.82" stop-color="#030404"/>
<stop offset="1"/>
</radialGradient>
</defs>
<g id="ecb15543-d1cd-451e-9c4a-ccad179c0e9b" data-name="nighttime">
<rect id="aa0f509f-e59f-4e1a-bdf5-06173dfbbaaf" data-name="nighttime sky" class="fa5cf7c9-a534-4ca3-a162-de47d757a8e7" x="1" y="1" width="234.78" height="76.52" rx="38.26"/>
<path id="a6bd5f5b-bc37-4a57-bcfd-457864b1ceb1" data-name="nighttime foreground" class="e336286f-8211-4a6d-9eb1-3089af027feb" d="M205.55,209H50.45A37.49,37.49,0,0,1,13,171.46h0q8.91,3.79,18.74,7.46c4.54,1.68,8.39,3,11.13,3.93,4.49,1.52,8.62,2.83,12.31,4a77.22,77.22,0,0,0,26.84,0c6.83-1.23,11.4-3.05,16.41-4.84,14.48-5.19,29.73-8.67,37.71-10.5,11.57-2.65,36.3.41,58.49,6.82,17,4.9,29-4.69,36.95-6.82,9.27-2.48,11.5-10.35,11.5,0h0A37.49,37.49,0,0,1,205.55,209Z" transform="translate(-9.61 -132.87)"/>
<path id="b916dd08-e187-4f86-a218-527e5c698452" data-name="tree night" class="fc9b86c8-77c5-4fb5-af4c-a4e6e59e3181" d="M158.3,193.43c-.3-1.25-2.07-1.21-4.56-2.6a16.61,16.61,0,0,1-6.52-7.18,11.12,11.12,0,0,1-1.09-3.33c1.4-.28,2.47-.57,3.26-.8,4.72-1.38,5-2.26,5-2.61,0-.85-2-.88-4.56-2.61-.77-.5-2.4-4-3.92-7.5,0-.13-.1-.24-.15-.35,1.58-.42,2.7-1,3-1.93.2-.61-.17-.84-3-5.22-3.89-5.92-5.84-8.88-7-10.87-1.49-2.63-1.81-3.53-2.39-3.47-1.79.16-.25,8.76-5.65,14.78-2.53,2.81-4.73,3-4.57,4.13.12.88,1.62,1.63,3.79,2.19-.86,3,.4,6.64-2.7,10.2-1.35,1.54-2.86,2.33-2.61,3.26.19.72,1.34,1.09,3.61,1.34-1.26,2.67-2.26,4.89-3,6.49-2.73,6.21-3.14,7.8-5.22,10-1.35,1.44-2.37,2-2.17,2.61.38,1.12,4.54.27,10.65,0a50.85,50.85,0,0,1,6.09,0v5h4.88v-4.73c1.2,0,2.63,0,4.47-.06,5.38-.18,8.92-.63,11.95-3C156.51,196.65,158.67,194.94,158.3,193.43Z" transform="translate(-9.61 -132.87)"/>

<polygon id="b62005d8-82e0-4680-bf50-6d034a0758e1" data-name="star 9D" class="fc337dae-b8ed-49ea-8767-6d49431f9229" points="36.15 45.18 35.27 44.2 33.96 44.37 34.62 43.23 34.06 42.03 35.35 42.31 36.31 41.41 36.44 42.72 37.6 43.35 36.39 43.88 36.15 45.18">
<animateTransform 
    attributeName="transform"
    type="translate"
    from="0 0"
    to="200 100"
    begin="10s"
    dur=".5s"
    repeatCount="3"
  />
</polygon>
<polygon id="a5d63736-d367-480e-8d21-ccd131edca4a" data-name="star 9C" class="fc337dae-b8ed-49ea-8767-6d49431f9229" points="36.15 45.18 35.27 44.2 33.96 44.37 34.62 43.23 34.06 42.03 35.35 42.31 36.31 41.41 36.44 42.72 37.6 43.35 36.39 43.88 36.15 45.18">
<animateTransform 
    attributeName="transform"
    type="translate"
    from="0 0"
    to="200 100"
    begin="5410s"
    dur=".5s"
    repeatCount="3"
  />
</polygon>
<polygon id="eba189b5-4e98-42b5-81fb-cc1997316019" data-name="star 9B" class="fc337dae-b8ed-49ea-8767-6d49431f9229" points="36.15 45.18 35.27 44.2 33.96 44.37 34.62 43.23 34.06 42.03 35.35 42.31 36.31 41.41 36.44 42.72 37.6 43.35 36.39 43.88 36.15 45.18">
<animateTransform 
    attributeName="transform"
    type="translate"
    from="0 0"
    to="200 100"
    begin="4510s"
    dur=".5s"
    repeatCount="3"
  />
</polygon>
<polygon id="f519d9a2-e852-4301-8b7e-6d5bd174d75c" data-name="star 9A" class="fc337dae-b8ed-49ea-8767-6d49431f9229" points="36.15 45.18 35.27 44.2 33.96 44.37 34.62 43.23 34.06 42.03 35.35 42.31 36.31 41.41 36.44 42.72 37.6 43.35 36.39 43.88 36.15 45.18">
<animateTransform 
    attributeName="transform"
    type="translate"
    from="0 0"
    to="200 100"
    begin="1810s"
    dur=".5s"
    repeatCount="3"
  />
</polygon>
<polygon id="ab668c1c-803b-4287-b5c7-bbe4dc6aeda0" data-name="star 8D" class="fc337dae-b8ed-49ea-8767-6d49431f9229" points="138.04 22.3 136.71 21.27 135.1 21.77 135.67 20.19 134.69 18.82 136.38 18.87 137.38 17.52 137.85 19.14 139.45 19.67 138.05 20.61 138.04 22.3">
<animateTransform 
    attributeName="transform"
    type="translate"
    from="0 0"
    to="200 100"
    begin="10210s"
    dur=".5s"
    repeatCount="3"
  />
</polygon>
<polygon id="ffe9e170-34a4-491f-91f5-1cfd3b53d025" data-name="star 8C" class="fc337dae-b8ed-49ea-8767-6d49431f9229" points="138.04 22.3 136.71 21.27 135.1 21.77 135.67 20.19 134.69 18.82 136.38 18.87 137.38 17.52 137.85 19.14 139.45 19.67 138.05 20.61 138.04 22.3">
<animateTransform 
    attributeName="transform"
    type="translate"
    from="0 0"
    to="200 100"
    begin="5710s"
    dur=".5s"
    repeatCount="3"
  />
</polygon>
<polygon id="b6a9e179-f65f-4eb1-9127-fef509258bc9" data-name="star 8B" class="fc337dae-b8ed-49ea-8767-6d49431f9229" points="138.04 22.3 136.71 21.27 135.1 21.77 135.67 20.19 134.69 18.82 136.38 18.87 137.38 17.52 137.85 19.14 139.45 19.67 138.05 20.61 138.04 22.3">
<animateTransform 
    attributeName="transform"
    type="translate"
    from="0 0"
    to="200 100"
    begin="5110s"
    dur=".5s"
    repeatCount="3"
  />
</polygon>
<polygon id="f76c09b1-5378-4354-8e69-566139390654" data-name="star 8A" class="fc337dae-b8ed-49ea-8767-6d49431f9229" points="138.04 22.3 136.71 21.27 135.1 21.77 135.67 20.19 134.69 18.82 136.38 18.87 137.38 17.52 137.85 19.14 139.45 19.67 138.05 20.61 138.04 22.3">
<animateTransform 
    attributeName="transform"
    type="translate"
    from="0 0"
    to="200 100"
    begin="1510s"
    dur=".5s"
    repeatCount="3"
  />
</polygon>
<polygon id="b840a681-3aa8-48b7-851b-4de9ee8a4629" data-name="star 7D" class="fc337dae-b8ed-49ea-8767-6d49431f9229" points="62.54 13.57 60.47 11.44 57.55 11.93 58.94 9.31 57.56 6.68 60.48 7.19 62.56 5.07 62.98 8.01 65.63 9.33 62.97 10.63 62.54 13.57">
<animateTransform 
    attributeName="transform"
    type="translate"
    from="0 0"
    to="200 100"
    begin="9910s"
    dur=".5s"
    repeatCount="3"
  />
</polygon>
<polygon id="e79b1e11-6c2b-4bfd-9061-329e4e46faf9" data-name="star 7C" class="fc337dae-b8ed-49ea-8767-6d49431f9229" points="62.54 13.57 60.47 11.44 57.55 11.93 58.94 9.31 57.56 6.68 60.48 7.19 62.56 5.07 62.98 8.01 65.63 9.33 62.97 10.63 62.54 13.57">
<animateTransform 
    attributeName="transform"
    type="translate"
    from="0 0"
    to="200 100"
    begin="6310s"
    dur=".5s"
    repeatCount="3"
  />
</polygon>
<polygon id="fd7b02ed-9294-4b47-ab16-aea136ff6704" data-name="star 7B" class="fc337dae-b8ed-49ea-8767-6d49431f9229" points="62.54 13.57 60.47 11.44 57.55 11.93 58.94 9.31 57.56 6.68 60.48 7.19 62.56 5.07 62.98 8.01 65.63 9.33 62.97 10.63 62.54 13.57">
<animateTransform 
    attributeName="transform"
    type="translate"
    from="0 0"
    to="200 100"
    begin="10s"
    dur=".5s"
    repeatCount="3"
  />
</polygon>
<polygon id="b12bbbcd-91df-4b8e-b328-8e0260e8a1a0" data-name="star 7A" class="fc337dae-b8ed-49ea-8767-6d49431f9229" points="62.54 13.57 60.47 11.44 57.55 11.93 58.94 9.31 57.56 6.68 60.48 7.19 62.56 5.07 62.98 8.01 65.63 9.33 62.97 10.63 62.54 13.57">
<animateTransform 
    attributeName="transform"
    type="translate"
    from="0 0"
    to="200 100"
    begin="910s"
    dur=".5s"
    repeatCount="3"
  />
</polygon>
<polygon id="b85c4408-247e-4690-9f97-116f0907808d" data-name="star 6D" class="fc337dae-b8ed-49ea-8767-6d49431f9229" points="82.21 22.73 80.33 21.94 78.6 23.04 78.78 21 77.19 19.71 79.18 19.24 79.93 17.33 80.99 19.08 83.03 19.2 81.69 20.75 82.21 22.73">
<animateTransform 
    attributeName="transform"
    type="translate"
    from="0 0"
    to="200 100"
    begin="9610s"
    dur=".5s"
    repeatCount="3"
  />
</polygon>
<polygon id="bb1f67c0-bc0e-4bc1-afff-9dcdddb238fb" data-name="star 6C" class="fc337dae-b8ed-49ea-8767-6d49431f9229" points="82.21 22.73 80.33 21.94 78.6 23.04 78.78 21 77.19 19.71 79.18 19.24 79.93 17.33 80.99 19.08 83.03 19.2 81.69 20.75 82.21 22.73">
<animateTransform 
    attributeName="transform"
    type="translate"
    from="0 0"
    to="200 100"
    begin="7210s"
    dur=".5s"
    repeatCount="3"
  />
</polygon>
<polygon id="a3a2ca4f-04dd-446c-b291-eb99b1598165" data-name="star 6B" class="fc337dae-b8ed-49ea-8767-6d49431f9229" points="82.21 22.73 80.33 21.94 78.6 23.04 78.78 21 77.19 19.71 79.18 19.24 79.93 17.33 80.99 19.08 83.03 19.2 81.69 20.75 82.21 22.73">
<animateTransform 
    attributeName="transform"
    type="translate"
    from="0 0"
    to="200 100"
    begin="3910s"
    dur=".5s"
    repeatCount="3"
  />
</polygon>
<polygon id="b4254ca5-c489-4b47-a557-f1e939708e2b" data-name="star 6A" class="fc337dae-b8ed-49ea-8767-6d49431f9229" points="82.21 22.73 80.33 21.94 78.6 23.04 78.78 21 77.19 19.71 79.18 19.24 79.93 17.33 80.99 19.08 83.03 19.2 81.69 20.75 82.21 22.73">
<animateTransform 
    attributeName="transform"
    type="translate"
    from="0 0"
    to="200 100"
    begin="610s"
    dur=".5s"
    repeatCount="3"
  />
</polygon>
<polygon id="a8d3b3a4-9450-4015-bcf7-7bb077040402" data-name="star 5D" class="fc337dae-b8ed-49ea-8767-6d49431f9229" points="38.02 20.85 35.96 21.23 35.1 23.15 34.1 21.3 32.01 21.07 33.46 19.55 33.02 17.5 34.92 18.4 36.74 17.35 36.47 19.44 38.02 20.85">
<animateTransform 
    attributeName="transform"
    type="translate"
    from="0 0"
    to="200 100"
    begin="8710s"
    dur=".5s"
    repeatCount="3"
  />
</polygon>
<polygon id="f66abadb-58c3-44ac-bdba-ce24c5daa8a0" data-name="star 5C" class="fc337dae-b8ed-49ea-8767-6d49431f9229" points="38.02 20.85 35.96 21.23 35.1 23.15 34.1 21.3 32.01 21.07 33.46 19.55 33.02 17.5 34.92 18.4 36.74 17.35 36.47 19.44 38.02 20.85">
<animateTransform 
    attributeName="transform"
    type="translate"
    from="0 0"
    to="200 100"
    begin="7510s"
    dur=".5s"
    repeatCount="3"
  />
</polygon>
<polygon id="af4f16df-8e85-461d-9dd0-b4c875176075" data-name="star 5B" class="fc337dae-b8ed-49ea-8767-6d49431f9229" points="38.02 20.85 35.96 21.23 35.1 23.15 34.1 21.3 32.01 21.07 33.46 19.55 33.02 17.5 34.92 18.4 36.74 17.35 36.47 19.44 38.02 20.85">
<animateTransform 
    attributeName="transform"
    type="translate"
    from="0 0"
    to="200 100"
    begin="3010s"
    dur=".5s"
    repeatCount="3"
  />
</polygon>
<polygon id="a3f99ce8-985b-41eb-9ffe-85402916f280" data-name="star 5A" class="fc337dae-b8ed-49ea-8767-6d49431f9229" points="38.02 20.85 35.96 21.23 35.1 23.15 34.1 21.3 32.01 21.07 33.46 19.55 33.02 17.5 34.92 18.4 36.74 17.35 36.47 19.44 38.02 20.85">
<animateTransform 
    attributeName="transform"
    type="translate"
    from="0 0"
    to="200 100"
    begin="2100s"
    dur=".5s"
    repeatCount="3"
  />
</polygon>
<polygon id="e56db828-efa7-4a32-ae74-45e38bec3357" data-name="star 4D" class="fc337dae-b8ed-49ea-8767-6d49431f9229" points="66.86 36.24 65.38 36.04 64.36 37.14 64.1 35.66 62.73 35.04 64.06 34.34 64.23 32.84 65.31 33.89 66.78 33.59 66.12 34.94 66.86 36.24">
<animateTransform 
    attributeName="transform"
    type="translate"
    from="0 0"
    to="200 100"
    begin="8110s"
    dur=".5s"
    repeatCount="3"
  />
</polygon>
<polygon id="ef65e2b1-894f-4dba-835f-58a37dd1b997" data-name="star 4C" class="fc337dae-b8ed-49ea-8767-6d49431f9229" points="66.86 36.24 65.38 36.04 64.36 37.14 64.1 35.66 62.73 35.04 64.06 34.34 64.23 32.84 65.31 33.89 66.78 33.59 66.12 34.94 66.86 36.24">
<animateTransform 
    attributeName="transform"
    type="translate"
    from="0 0"
    to="200 100"
    begin="6610s"
    dur=".5s"
    repeatCount="3"
  />
</polygon>
<polygon id="eb5d694f-a577-4640-8e74-b95bbb334fdb" data-name="star 4B" class="fc337dae-b8ed-49ea-8767-6d49431f9229" points="66.86 36.24 65.38 36.04 64.36 37.14 64.1 35.66 62.73 35.04 64.06 34.34 64.23 32.84 65.31 33.89 66.78 33.59 66.12 34.94 66.86 36.24">
<animateTransform 
    attributeName="transform"
    type="translate"
    from="0 0"
    to="200 100"
    begin="3310s"
    dur=".5s"
    repeatCount="3"
  />
</polygon>
<polygon id="aa273449-1a17-4c1e-a155-d11c0966d4a8" data-name="star 4A" class="fc337dae-b8ed-49ea-8767-6d49431f9229" points="66.86 36.24 65.38 36.04 64.36 37.14 64.1 35.66 62.73 35.04 64.06 34.34 64.23 32.84 65.31 33.89 66.78 33.59 66.12 34.94 66.86 36.24">
<animateTransform 
    attributeName="transform"
    type="translate"
    from="0 0"
    to="200 100"
    begin="310s"
    dur=".5s"
    repeatCount="3"
  />
</polygon>
<polygon id="b0e7c711-29b8-4f35-a5a0-16f49150c0c7" data-name="star 3D" class="fc337dae-b8ed-49ea-8767-6d49431f9229" points="46.87 35.68 46.1 35.03 45.13 35.3 45.51 34.37 44.96 33.53 45.96 33.6 46.59 32.82 46.83 33.79 47.77 34.15 46.91 34.68 46.87 35.68">
<animateTransform 
    attributeName="transform"
    type="translate"
    from="0 0"
    to="200 100"
    begin="9010s"
    dur=".5s"
    repeatCount="3"
  />
</polygon>
<polygon id="b4c34e66-0035-45c1-a5e0-9242ea33686d" data-name="star 3C" class="fc337dae-b8ed-49ea-8767-6d49431f9229" points="46.87 35.68 46.1 35.03 45.13 35.3 45.51 34.37 44.96 33.53 45.96 33.6 46.59 32.82 46.83 33.79 47.77 34.15 46.91 34.68 46.87 35.68">
<animateTransform 
    attributeName="transform"
    type="translate"
    from="0 0"
    to="200 100"
    begin="7810s"
    dur=".5s"
    repeatCount="3"
  />
</polygon>
<polygon id="a51dce22-3e44-4363-87d6-258b693320f5" data-name="star 3B" class="fc337dae-b8ed-49ea-8767-6d49431f9229" points="46.87 35.68 46.1 35.03 45.13 35.3 45.51 34.37 44.96 33.53 45.96 33.6 46.59 32.82 46.83 33.79 47.77 34.15 46.91 34.68 46.87 35.68">
<animateTransform 
    attributeName="transform"
    type="translate"
    from="0 0"
    to="200 100"
    begin="4810s"
    dur=".5s"
    repeatCount="3"
  />
</polygon>
<polygon id="bf88e952-0bbe-4195-b3c9-e2055db87a5f" data-name="star 3A" class="fc337dae-b8ed-49ea-8767-6d49431f9229" points="46.87 35.68 46.1 35.03 45.13 35.3 45.51 34.37 44.96 33.53 45.96 33.6 46.59 32.82 46.83 33.79 47.77 34.15 46.91 34.68 46.87 35.68">
<animateTransform 
    attributeName="transform"
    type="translate"
    from="0 0"
    to="200 100"
    begin="1210s"
    dur=".5s"
    repeatCount="3"
  />
</polygon>
<polygon id="e342ac42-d45b-4253-931c-6cb2c9122e7e" data-name="star 2D" class="fc337dae-b8ed-49ea-8767-6d49431f9229" points="103.42 26.44 103.2 25.27 102.12 24.79 103.16 24.22 103.29 23.04 104.15 23.86 105.31 23.62 104.8 24.69 105.39 25.72 104.22 25.56 103.42 26.44">
<animateTransform 
    attributeName="transform"
    type="translate"
    from="0 0"
    to="200 100"
    begin="9310s"
    dur=".5s"
    repeatCount="3"
  />
</polygon>
<polygon id="a4023d6a-1df6-4b70-a7bb-e32d52c1c401" data-name="star 2C" class="fc337dae-b8ed-49ea-8767-6d49431f9229" points="103.42 26.44 103.2 25.27 102.12 24.79 103.16 24.22 103.29 23.04 104.15 23.86 105.31 23.62 104.8 24.69 105.39 25.72 104.22 25.56 103.42 26.44">
<animateTransform 
    attributeName="transform"
    type="translate"
    from="0 0"
    to="200 100"
    begin="6910s"
    dur=".5s"
    repeatCount="3"
  />
</polygon>
<polygon id="b9cda7cf-363b-46db-a560-2290fa9c1a66" data-name="star 2B" class="fc337dae-b8ed-49ea-8767-6d49431f9229" points="103.42 26.44 103.2 25.27 102.12 24.79 103.16 24.22 103.29 23.04 104.15 23.86 105.31 23.62 104.8 24.69 105.39 25.72 104.22 25.56 103.42 26.44">
<animateTransform 
    attributeName="transform"
    type="translate"
    from="0 0"
    to="200 100"
    begin="3610s"
    dur=".5s"
    repeatCount="3"
  />
</polygon>
<polygon id="b088ea7c-eeae-4c92-b3f5-89cfcdff1f6d" data-name="star 2A" class="fc337dae-b8ed-49ea-8767-6d49431f9229" points="103.42 26.44 103.2 25.27 102.12 24.79 103.16 24.22 103.29 23.04 104.15 23.86 105.31 23.62 104.8 24.69 105.39 25.72 104.22 25.56 103.42 26.44">
<animateTransform 
    attributeName="transform"
    type="translate"
    from="0 0"
    to="200 100"
    begin="2410s"
    dur=".5s"
    repeatCount="3"
  />
</polygon>
<polygon id="f32ee375-23ed-4886-95bc-254ad55d2b79" data-name="star 1D" class="fc337dae-b8ed-49ea-8767-6d49431f9229" points="85.65 40.23 84.69 40.01 83.96 40.67 83.88 39.69 83.03 39.2 83.94 38.82 84.14 37.85 84.78 38.6 85.76 38.49 85.25 39.34 85.65 40.23">
<animateTransform 
    attributeName="transform"
    type="translate"
    from="0 0"
    to="200 100"
    begin="8410s"
    dur=".5s"
    repeatCount="3"
  />
</polygon>
<polygon id="b03136ab-91e9-4d75-8207-00c233953736" data-name="star 1C" class="fc337dae-b8ed-49ea-8767-6d49431f9229" points="85.65 40.23 84.69 40.01 83.96 40.67 83.88 39.69 83.03 39.2 83.94 38.82 84.14 37.85 84.78 38.6 85.76 38.49 85.25 39.34 85.65 40.23">
<animateTransform 
    attributeName="transform"
    type="translate"
    from="0 0"
    to="200 100"
    begin="6010s"
    dur=".5s"
    repeatCount="3"
  />
</polygon>
<polygon id="b559fd45-7c07-48e5-b56c-aef69b322284" data-name="star 1B" class="fc337dae-b8ed-49ea-8767-6d49431f9229" points="85.65 40.23 84.69 40.01 83.96 40.67 83.88 39.69 83.03 39.2 83.94 38.82 84.14 37.85 84.78 38.6 85.76 38.49 85.25 39.34 85.65 40.23">
<animateTransform 
    attributeName="transform"
    type="translate"
    from="0 0"
    to="200 100"
    begin="2710s"
    dur=".5s"
    repeatCount="3"
  />
</polygon>
<polygon id="abaa3227-5816-4db8-9462-b49203a7de01" data-name="star 1A" class="fc337dae-b8ed-49ea-8767-6d49431f9229" points="85.65 40.23 84.69 40.01 83.96 40.67 83.88 39.69 83.03 39.2 83.94 38.82 84.14 37.85 84.78 38.6 85.76 38.49 85.25 39.34 85.65 40.23">
<animateTransform 
    attributeName="transform"
    type="translate"
    from="0 0"
    to="200 100"
    begin="2710s"
    dur=".5s"
    repeatCount="3"
  />
</polygon>
</g>
</svg>